<svg id="Layer_1" enable-background="new 0 0 512 512" height="512" viewBox="0 0 512 512" width="512" xmlns="http://www.w3.org/2000/svg"><path d="m453.599 360.894c-1.876-3.737-6.425-5.246-10.162-3.371s-5.246 6.426-3.37 10.162l13.942 27.781c1.329 2.647 3.999 4.177 6.772 4.177 1.141 0 2.3-.26 3.39-.806 3.737-1.875 5.246-6.426 3.37-10.161z"/><path d="m506.571 404.937-31.054-61.025c-4.337-8.546-10.414-13.167-19.64-14.682v-17.155h9.007c13.331 0 24.176-10.848 24.176-24.182v-53.804c0-13.319-10.845-24.155-24.176-24.155h-9.007v-9.495c0-11.803-9.612-21.404-21.428-21.404h-13.966v-54.965h7.08c12.018 0 21.796-9.78 21.796-21.801v-14.258c0-12.021-9.778-21.801-21.796-21.801h-95.866c-12.018 0-21.796 9.78-21.796 21.801v14.259c0 12.021 9.778 21.801 21.796 21.801h7.08v54.964h-36.773v-20.325c0-10.677-8.685-19.364-19.359-19.364h-13.97c-10.69 0-19.387 8.687-19.387 19.364v20.324h-43.773v-68.598c13.524-2.812 23.719-14.823 23.719-29.172 0-16.413-13.363-29.767-29.787-29.767h-160.62c-16.424 0-29.787 13.353-29.787 29.767 0 14.359 10.208 26.378 23.747 29.179v218.211h-15.865c-9.331 0-16.922 7.593-16.922 16.926v29.594c0 9.333 7.591 16.926 16.922 16.926h23.753c3.809 38.351 36.233 68.403 75.542 68.403 39.325 0 71.76-30.053 75.571-68.403h49.886c3.811 38.351 36.246 68.403 75.571 68.403 39.31 0 71.733-30.053 75.542-68.403h9.329l1.576-.001c2.254-.003 4.565-.006 5.78.101.425.712 1.036 1.884 1.592 2.95.646 1.239 1.4 2.686 2.332 4.374.029.054.059.106.089.159l5.906 10.127c7.104 12.83 16.334 13.917 26.104 15.066 2.124.25 4.32.509 6.716.891l38.138 6.095c2.715.435 5.7.915 8.59.915 4.222 0 8.24-1.022 10.917-4.696 4.163-5.711 1.83-13.089-3.285-23.144zm-50.694-179.863h9.007c4.982 0 9.035 4.044 9.035 9.014v53.804c0 4.986-4.053 9.041-9.035 9.041h-9.007zm-124.18-116.145c-3.67 0-6.655-2.987-6.655-6.66v-14.258c0-3.673 2.985-6.66 6.655-6.66h95.866c3.67 0 6.655 2.987 6.655 6.66v14.259c0 3.673-2.985 6.66-6.655 6.66h-14.651-66.565-14.65zm73.645 15.141v54.964h-51.424v-54.964zm-140.914 34.64c0-2.288 1.945-4.222 4.246-4.222h13.97c2.326 0 4.218 1.894 4.218 4.222v20.324h-22.434zm-240.247-77.446c0-8.065 6.57-14.626 14.646-14.626h160.618c8.076 0 14.646 6.561 14.646 14.626 0 8.08-6.57 14.654-14.646 14.654h-1.502-157.586-1.53c-8.076 0-14.646-6.574-14.646-14.654zm97.108 198.38h.028l69.055-.256v49.265h-142.444v-49.293h44.117c4.181 0 7.571-3.389 7.571-7.571s-3.389-7.571-7.571-7.571h-44.117v-153.16h142.445v75.545 77.642l-69.111.256c-4.181.016-7.558 3.418-7.543 7.599.016 4.173 3.402 7.544 7.57 7.544zm-5.072 165.718c-30.953 0-56.576-23.278-60.311-53.262h19.265c3.57 19.438 20.611 34.216 41.047 34.216 20.45 0 37.502-14.778 41.074-34.216h19.265c-3.737 29.984-29.372 53.262-60.34 53.262zm-25.511-53.262h51.049c-3.269 11.016-13.481 19.075-25.538 19.075-12.045 0-22.246-8.059-25.511-19.075zm226.539 53.262c-30.967 0-56.603-23.278-60.34-53.262h19.265c3.573 19.438 20.625 34.216 41.074 34.216 20.435 0 37.476-14.778 41.046-34.216h19.265c-3.734 29.984-29.357 53.262-60.31 53.262zm-25.538-53.262h51.049c-3.265 11.016-13.466 19.075-25.51 19.075-12.059 0-22.271-8.059-25.539-19.075zm201.037 24.811-38.143-6.096c-2.706-.432-5.166-.721-7.337-.977-8.91-1.049-11.305-1.33-14.657-7.417-.03-.055-.061-.108-.091-.161l-5.905-10.126c-.845-1.535-1.532-2.854-2.122-3.985-5.297-10.158-8.437-11.192-20.499-11.192-.106 0-.213 0-.321 0l-386.748.002c-.965 0-1.781-.817-1.781-1.785v-29.594c0-.968.816-1.785 1.781-1.785h23.435 157.586 74.046c4.181 0 7.571-3.389 7.571-7.571 0-4.181-3.389-7.571-7.571-7.571h-66.475v-134.478h51.343 37.576 51.914 66.565 21.537c3.408 0 6.286 2.868 6.286 6.263v17.065 87 24.151h-134.144c-4.181 0-7.571 3.39-7.571 7.571s3.389 7.571 7.571 7.571h141.716c9.488 0 11.508 2.633 13.713 6.975l31.057 61.032c1.2 2.36 2.017 4.167 2.572 5.538-.849-.113-1.817-.255-2.904-.43z"/><path d="m323.11 242.848h62.711c4.181 0 7.571-3.389 7.571-7.571s-3.389-7.571-7.571-7.571h-62.711c-4.181 0-7.571 3.39-7.571 7.571s3.39 7.571 7.571 7.571z"/><path d="m323.11 284.321h62.711c4.181 0 7.571-3.389 7.571-7.571s-3.389-7.571-7.571-7.571h-62.711c-4.181 0-7.571 3.39-7.571 7.571s3.39 7.571 7.571 7.571z"/><path d="m171.962 208.545v-67.581c0-9.52-7.744-17.266-17.262-17.266h-72.658c-9.518 0-17.262 7.745-17.262 17.266v67.581c0 9.52 7.744 17.266 17.262 17.266h72.658c9.518 0 17.262-7.745 17.262-17.266zm-92.041 0v-67.581c0-1.151.971-2.124 2.121-2.124h72.658c1.149 0 2.121.973 2.121 2.124v67.581c0 1.151-.971 2.124-2.121 2.124h-72.658c-1.15.001-2.121-.972-2.121-2.124z"/></svg>