<svg id="Layer_35" enable-background="new 0 0 64 64" height="512" viewBox="0 0 64 64" width="512" xmlns="http://www.w3.org/2000/svg"><g><path d="m41 36c-2.206 0-4 1.794-4 4s1.794 4 4 4 4-1.794 4-4-1.794-4-4-4zm0 6c-1.103 0-2-.897-2-2s.897-2 2-2 2 .897 2 2-.897 2-2 2z"/><path d="m22.91 39h12.18c.121-.718.369-1.392.721-2h-13.623c.353.608.6 1.282.722 2z"/><path d="m46.91 39h1.181c.121-.718.369-1.392.721-2h-2.624c.353.608.6 1.282.722 2z"/><path d="m17 36c-2.206 0-4 1.794-4 4s1.794 4 4 4 4-1.794 4-4-1.794-4-4-4zm0 6c-1.103 0-2-.897-2-2s.897-2 2-2 2 .897 2 2-.897 2-2 2z"/><path d="m4 31h1v2h-1z"/><path d="m9.618 26h2.382v-2h-1.382z"/><path d="m56 33v-3h4v-2h-2v-8h-36v-2h-3v2h1v10h2v3h-5c-.553 0-1-.447-1-1v-12h-8.351l-3.649 8.212v.788h2c.553 0 1 .447 1 1v4c0 .553-.447 1-1 1h-2v2c0 .553-.447 1-1 1v1h8.09c.478-2.833 2.942-5 5.91-5 1.223 0 2.36.369 3.31 1h17.38c.95-.631 2.087-1 3.31-1s2.36.369 3.31 1h6.381c.95-.631 2.087-1 3.31-1 2.967 0 5.431 2.167 5.91 5h1.089v-6zm-45-2v-2h3v2zm-3-3c-.347 0-.668-.18-.851-.475s-.199-.663-.044-.973l2-4c.17-.338.516-.552.895-.552h3c.553 0 1 .448 1 1v4c0 .553-.447 1-1 1zm44-5h2v5h-2zm-4 0h2v5h-2zm-4 0h2v5h-2zm-4 0h2v5h-2zm-4 0h2v5h-2zm-4 0h2v5h-2zm-4 0h2v5h-2zm-4 0h2v5h-2zm0 10v-3h14v3zm16 0v-3h14v3z"/><path d="m54 36c-2.206 0-4 1.794-4 4s1.794 4 4 4 4-1.794 4-4-1.794-4-4-4zm0 6c-1.103 0-2-.897-2-2s.897-2 2-2 2 .897 2 2-.897 2-2 2z"/></g></svg>