<svg id="Capa_1" enable-background="new 0 0 512 512" height="512" viewBox="0 0 512 512" width="512" xmlns="http://www.w3.org/2000/svg"><g><path d="m512 355.871c0-9.649-7.851-17.5-17.5-17.5h-2.133v-46.379c0-7.627-6.205-13.833-13.833-13.833h-11.269v-154.159c0-4.142-3.357-7.5-7.5-7.5s-7.5 3.358-7.5 7.5v154.159h-25.481v-80.262c0-7.262-5.908-13.17-13.17-13.17h-.66v-52.517c0-7.053-5.737-12.791-12.79-12.791h-25.664v-56.03h77.766v26.611c0 4.142 3.357 7.5 7.5 7.5s7.5-3.358 7.5-7.5v-28.44c0-7.262-5.908-13.17-13.171-13.17h-278.503c-7.263 0-13.171 5.908-13.171 13.17v76.706h-77.979c-7.628 0-13.833 6.206-13.833 13.833v55.422h-37.805c-7.265 0-13.175 5.91-13.175 13.174v117.676h-2.129c-9.649 0-17.5 7.851-17.5 17.5v90.241c0 9.649 7.851 17.5 17.5 17.5h477c9.649 0 17.5-7.851 17.5-17.5zm-240.5 30.048v30.144h-31v-30.144zm15 0h164.5v30.144h-164.5zm179.5 0h31v30.144h-31zm11.367-47.55h-89.244v-45.21h11.937v12.25c0 6.781 5.517 12.297 12.297 12.297h40.777c6.78 0 12.297-5.517 12.297-12.297v-12.25h11.937v45.21zm-62.307-45.21h35.371v9.547h-35.371zm-17.106-108.438h-50.302v-50.302h50.302zm-128.277-121.332h89.823v56.031h-14.057c-7.053 0-12.791 5.738-12.791 12.791v3.035h-62.976v-71.857zm-92.256 0h77.256v74.356c0 6.893 5.607 12.5 12.5 12.5h65.476v34.481h-8.653c-4.143 0-7.5 3.358-7.5 7.5s3.357 7.5 7.5 7.5h87.784v78.432h-24.828c-7.628 0-13.833 6.206-13.833 13.833v46.377h-81.087v-88.314c0-7.19-5.85-13.039-13.039-13.039h-5.855v-37.289h16.858c4.143 0 7.5-3.358 7.5-7.5s-3.357-7.5-7.5-7.5h-18.687c-7.263 0-13.172 5.909-13.172 13.171v39.118h-26.282v-84.917c0-7.627-6.205-13.833-13.833-13.833h-40.605zm-5.738 274.981v-86.354h105.354v21.577h-30.5c-7.189 0-13.039 5.849-13.039 13.039v20.495c0 7.19 5.85 13.039 13.039 13.039h30.5v18.204zm105.353-33.204h-28.539v-16.573h28.539zm-124.291-151.901h28.981v18.564h-28.981zm-67.136 0h52.136v20.998c0 6.929 5.638 12.566 12.566 12.566h33.849c6.929 0 12.566-5.637 12.566-12.566v-20.998h20.133v83.75h-47.138c-7.189 0-13.039 5.849-13.039 13.039v88.313h-35.292v-117.673c0-7.264-5.91-13.174-13.174-13.174h-22.607zm-50.98 69.255h71.761v115.851h-71.761zm-19.629 133.351c0-1.378 1.121-2.5 2.5-2.5h477c1.379 0 2.5 1.122 2.5 2.5v15.048h-361.666c-4.143 0-7.5 3.358-7.5 7.5s3.357 7.5 7.5 7.5h90.166v30.144h-164.5v-30.144h40.333c4.143 0 7.5-3.358 7.5-7.5s-3.357-7.5-7.5-7.5h-86.333zm0 30.048h31v30.144h-31zm482 60.192c0 1.378-1.121 2.5-2.5 2.5h-477c-1.379 0-2.5-1.122-2.5-2.5v-15.048h482z"/><path d="m200.589 265.103h-1.113c-4.143 0-7.5 3.358-7.5 7.5s3.357 7.5 7.5 7.5h1.113c4.143 0 7.5-3.358 7.5-7.5s-3.358-7.5-7.5-7.5z"/><path d="m200.589 286.41h-1.113c-4.143 0-7.5 3.358-7.5 7.5s3.357 7.5 7.5 7.5h1.113c4.143 0 7.5-3.358 7.5-7.5s-3.358-7.5-7.5-7.5z"/><path d="m323.366 257.768h63.731c4.143 0 7.5-3.358 7.5-7.5s-3.357-7.5-7.5-7.5h-63.731c-4.143 0-7.5 3.358-7.5 7.5s3.358 7.5 7.5 7.5z"/><path d="m361.363 231.985h25.734c4.143 0 7.5-3.358 7.5-7.5s-3.357-7.5-7.5-7.5h-25.734c-4.143 0-7.5 3.358-7.5 7.5s3.358 7.5 7.5 7.5z"/><path d="m200.032 95h1.112c4.143 0 7.5-3.358 7.5-7.5s-3.357-7.5-7.5-7.5h-1.112c-4.143 0-7.5 3.358-7.5 7.5s3.358 7.5 7.5 7.5z"/><path d="m200.032 117h1.112c4.143 0 7.5-3.358 7.5-7.5s-3.357-7.5-7.5-7.5h-1.112c-4.143 0-7.5 3.358-7.5 7.5s3.358 7.5 7.5 7.5z"/><path d="m75.647 241.321c-2.887-2.715-7.389-2.716-10.275 0l-12.824 12.058c-3.018 2.837-3.164 7.583-.326 10.602 1.476 1.57 3.468 2.362 5.465 2.362 1.843 0 3.688-.674 5.137-2.036l.187-.175v10.29c0 4.142 3.357 7.5 7.5 7.5s7.5-3.358 7.5-7.5v-10.289l.186.175c3.018 2.837 7.764 2.692 10.602-.326s2.691-7.764-.326-10.602z"/></g></svg>