<?xml version="1.0" encoding="UTF-8"?>
<!DOCTYPE svg PUBLIC "-//W3C//DTD SVG 1.1//EN" "http://www.w3.org/Graphics/SVG/1.1/DTD/svg11.dtd">
<!-- Creator: CorelDRAW X8 -->
<svg xmlns="http://www.w3.org/2000/svg" xml:space="preserve" width="180.006mm" height="180mm" version="1.1" style="shape-rendering:geometricPrecision; text-rendering:geometricPrecision; image-rendering:optimizeQuality; fill-rule:evenodd; clip-rule:evenodd"
viewBox="0 0 17875 17874"
 xmlns:xlink="http://www.w3.org/1999/xlink">
 <defs>
  <style type="text/css">
   <![CDATA[
    .fil0 {fill:#4BA734}
    .fil1 {fill:#FEFEFC}
   ]]>
  </style>
 </defs>
 <g id="Слой_x0020_1">
  <metadata id="CorelCorpID_0Corel-Layer"/>
  <g id="_794782808">
   <path class="fil0" d="M5963 4762c168,-47 384,-14 566,-9 480,11 434,169 768,975 354,853 634,1173 246,1641 -89,108 -168,203 -264,319 -283,343 -394,315 168,1098 453,632 1163,1276 1855,1647 196,105 575,305 792,374 221,71 284,5 403,-119 220,-226 718,-902 819,-940 255,-95 1404,522 1669,650 313,151 577,194 568,580 -7,294 -88,666 -226,900 -108,184 -394,430 -610,554 -1020,586 -1697,384 -2754,-1 -1440,-524 -1883,-844 -2886,-1779 -455,-424 -235,-231 -566,-601 -906,-1011 -2046,-2572 -1586,-4023 152,-481 597,-1143 1038,-1266zm-3739 10936c221,-40 528,-153 738,-222l1471 -465c203,-68 533,-234 709,-131 439,256 756,448 1283,652 1620,625 3396,642 5019,111 911,-299 1949,-900 2484,-1416 778,-748 1129,-1070 1711,-2152 1299,-2413 1039,-5313 -500,-7553 -241,-351 -636,-815 -912,-1057 -750,-656 -1326,-1128 -2340,-1529 -3193,-1261 -6572,-207 -8484,2132 -1169,1431 -2007,3515 -1565,5945 187,1027 627,2062 1137,2772 217,303 115,311 -7,689 -193,601 -637,1737 -744,2224z"/>
   <path class="fil1" d="M2224 15698c107,-487 551,-1623 744,-2224 122,-378 224,-386 7,-689 -510,-710 -950,-1745 -1137,-2772 -442,-2430 396,-4514 1565,-5945 1912,-2339 5291,-3393 8484,-2132 1014,401 1590,873 2340,1529 276,242 671,706 912,1057 1539,2240 1799,5140 500,7553 -582,1082 -933,1404 -1711,2152 -535,516 -1573,1117 -2484,1416 -1623,531 -3399,514 -5019,-111 -527,-204 -844,-396 -1283,-652 -176,-103 -506,63 -709,131l-1471 465c-210,69 -517,182 -738,222zm-2224 2176c793,-184 2419,-780 3333,-1042l1385 -442c138,-46 130,-50 253,10 761,370 624,347 1551,641 1508,477 2996,514 4548,163 1101,-248 2071,-687 2997,-1306 1641,-1095 3122,-3117 3542,-5027 539,-2453 271,-4328 -909,-6524l-1122 -1504c-270,-268 -88,-145 -399,-403 -194,-161 -333,-342 -677,-599l-617 -441c-120,-76 -215,-128 -342,-205 -233,-141 -449,-236 -696,-361 -465,-235 -1014,-430 -1551,-564 -1856,-461 -3758,-329 -5519,373 -740,295 -1939,976 -2523,1561l-474 438c-448,452 -842,1016 -1191,1544l-404 726c-33,67 -48,111 -79,176 -194,406 -351,883 -491,1332 -325,1042 -342,2196 -251,3251 86,1008 527,2368 970,3114 36,61 44,83 77,142 50,89 51,72 99,159 111,200 -57,443 -129,663 -150,452 -299,899 -456,1368 -131,394 -847,2423 -925,2757z"/>
   <path class="fil1" d="M5963 4762c-441,123 -886,785 -1038,1266 -460,1451 680,3012 1586,4023 331,370 111,177 566,601 1003,935 1446,1255 2886,1779 1057,385 1734,587 2754,1 216,-124 502,-370 610,-554 138,-234 219,-606 226,-900 9,-386 -255,-429 -568,-580 -265,-128 -1414,-745 -1669,-650 -101,38 -599,714 -819,940 -119,124 -182,190 -403,119 -217,-69 -596,-269 -792,-374 -692,-371 -1402,-1015 -1855,-1647 -562,-783 -451,-755 -168,-1098 96,-116 175,-211 264,-319 388,-468 108,-788 -246,-1641 -334,-806 -288,-964 -768,-975 -182,-5 -398,-38 -566,9z"/>
  </g>
 </g>
</svg>
